<svg width="60" height="60" viewBox="0 0 60 60" fill="none" xmlns="http://www.w3.org/2000/svg">
  <path fill-rule="evenodd" clip-rule="evenodd"
    d="M28.7784 48.8854C28.4415 49.5679 27.7462 50 26.985 50H22.6477C21.1553 50 20.1886 48.4246 20.8647 47.094L38.3843 12.614C38.7253 11.9428 39.4144 11.52 40.1673 11.52H45.2412C46.2015 11.52 47.0262 12.2024 47.2059 13.1457L53.7757 47.6257C54.0106 48.8582 53.0657 50 51.8111 50H47.6059C46.6267 50 45.7915 49.291 45.6325 48.3248L44.8318 43.4593C44.6728 42.493 43.8376 41.784 42.8584 41.784H33.5272C32.766 41.784 32.0708 42.2161 31.7339 42.8987L28.7784 48.8854ZM39.0549 34.981C39.023 34.9563 38.9887 34.936 38.9529 34.92H38.8926C38.7928 34.92 38.6953 34.913 38.6005 34.8994C38.5622 34.9113 38.525 34.928 38.4896 34.9495L33.38 38.0553C32.9458 38.3193 32.4404 37.8424 32.6787 37.3936L35.2798 32.494C35.3939 32.2791 35.3367 32.0134 35.1444 31.8643L31.1554 28.773C30.7787 28.4811 30.9851 27.8778 31.4617 27.8778H37.3279C37.5146 27.8778 37.6857 27.7738 37.7717 27.6081L40.5138 22.324C40.7347 21.8983 41.3703 21.9977 41.4505 22.4706L42.2979 27.4615C42.3388 27.7019 42.547 27.8778 42.7909 27.8778H48.2134C48.7191 27.8778 48.9052 28.5427 48.4729 28.8052L43.304 31.9437C43.127 32.0512 43.0345 32.2567 43.0716 32.4605L44.0273 37.7193C44.1092 38.17 43.5924 38.4845 43.2298 38.2045L39.0549 34.981Z"
    fill="currentColor" />
  <path
    d="M26.0566 22.5647L13.4607 47.1493C12.7931 48.4521 13.7393 50 15.2032 50C15.9379 50 16.6108 49.5887 16.9458 48.9348L29.5403 24.3495C30.2075 23.0472 29.2617 21.5 27.7984 21.5C27.064 21.5 26.3914 21.9111 26.0566 22.5647Z"
    fill="currentColor" />
  <path
    d="M15.9547 28.567L6.45696 47.1497C5.79077 48.4531 6.73745 50.0001 8.20125 50.0001C8.93704 50.0001 9.61078 49.5878 9.94559 48.9326L19.4421 30.3492C20.1079 29.0463 19.1616 27.5 17.6984 27.5C16.9629 27.5 16.2894 27.9121 15.9547 28.567Z"
    fill="currentColor" />
</svg>
