<svg width="60" height="60" viewBox="0 0 60 60" fill="none" xmlns="http://www.w3.org/2000/svg">
  <path
    d="M44.5571 23.59C44.9242 23.3503 45.4046 23.3777 45.7421 23.6576L51.3161 28.2802C52.0299 28.8722 53.0952 28.258 52.9405 27.3437L51.6243 19.5656C51.5579 19.1731 51.7306 18.7786 52.064 18.5611L59.1825 13.9186C60.0156 13.3753 59.6309 12.081 58.6362 12.081H51.4071C50.9151 12.081 50.4962 11.7231 50.4194 11.2372L49.2998 4.1549C49.1469 3.18721 47.8379 2.99387 47.4117 3.87601L43.7205 11.516C43.5536 11.8615 43.2037 12.081 42.8201 12.081H34.7647C33.8291 12.081 33.4059 13.2511 34.1249 13.8496L39.6094 18.4146C39.9649 18.7105 40.0711 19.2117 39.8661 19.6263L36.3606 26.7185C35.9096 27.6311 36.9514 28.5555 37.8038 27.999L44.5571 23.59Z"
    fill="currentColor" />
  <path
    d="M4.65192 22.844C4.65192 15.044 10.2679 10 18.8479 10C25.4604 10 30.7801 14.0867 32.0063 19.7954C32.2446 20.9048 31.3202 21.856 30.1855 21.856H25.89C24.8709 21.856 24.0608 21.0589 23.6212 20.1396C22.7639 18.3469 20.8961 17.28 18.4319 17.28C14.7919 17.28 12.7119 18.84 12.7119 21.648C12.7119 23.832 13.9079 25.132 16.5599 25.912L22.0199 27.524C27.6879 29.24 30.3919 32.412 30.3919 37.456C30.3919 44.944 24.7239 49.884 16.0399 49.884C8.48273 49.884 3.34066 46.1977 2.22011 40.0874C2.01586 38.9736 2.93974 38.028 4.0721 38.028H8.27004C9.33228 38.028 10.1534 38.9004 10.6275 39.8511C11.5001 41.6012 13.5418 42.604 16.4039 42.604C20.1479 42.604 22.3839 40.992 22.3839 38.288C22.3839 36.364 21.4999 35.428 19.0559 34.7L13.4399 33.088C7.82392 31.476 4.65192 27.784 4.65192 22.844Z"
    fill="currentColor" />
  <path
    d="M39.9903 31.3481L44.8913 28.1484L48.7625 31.3589C48.9897 31.5474 49.224 31.7113 49.4634 31.8521C47.724 47.2933 27.8492 61.4472 8 54.5C23.9646 59.4889 40.9248 51.0375 39.5096 31.6291C39.6709 31.5455 39.8313 31.452 39.9903 31.3481Z"
    fill="currentColor" />
</svg>
